<svg width="345" height="360" viewBox="0 0 345 360" fill="none" xmlns="http://www.w3.org/2000/svg">
<g id="Medical care-bro 1">
<g id="freepik--background-simple--inject-63">
<path id="Vector" d="M290.276 94.464C273.136 67.968 247.655 44.8344 217.867 34.7472C207.577 31.3071 197.013 28.8348 186.3 27.36C104.88 15.84 58.6499 66.96 46.2299 100.8C39.1229 120.161 45.878 141.775 51.2324 160.625C55.9727 177.322 67.544 202.716 61.4099 220.32C53.1299 244.08 41.3999 277.2 76.5899 293.76C111.78 310.32 140.87 321.307 197.34 300.24C253.81 279.173 286.184 257.99 302.869 226.843C325.363 184.853 315.861 134.014 290.276 94.464Z" fill="#181D3D"/>
<path id="Vector_2" opacity="0.7" d="M290.276 94.464C273.136 67.968 247.655 44.8344 217.867 34.7472C207.577 31.3071 197.013 28.8348 186.3 27.36C104.88 15.84 58.6499 66.9599 46.2299 100.8C39.1229 120.161 45.878 141.775 51.2324 160.625C55.9727 177.322 67.544 202.716 61.4099 220.32C53.1299 244.08 41.3999 277.2 76.5899 293.76C111.78 310.32 140.87 321.307 197.34 300.24C253.81 279.173 286.184 257.99 302.869 226.843C325.363 184.853 315.861 134.014 290.276 94.464Z" fill="white"/>
</g>
<g id="freepik--Window--inject-63">
<path id="Vector_3" d="M99.5049 44.1216H36.287L35.4521 54.7704H99.5049V44.1216Z" stroke="#808080" stroke-linecap="round" stroke-linejoin="round"/>
<path id="Vector_4" d="M99.5049 54.7705H36.287L35.4521 65.4265H99.5049V54.7705Z" stroke="#808080" stroke-linecap="round" stroke-linejoin="round"/>
<path id="Vector_5" d="M99.5049 65.4268H36.287L35.4521 76.0828H99.5049V65.4268Z" stroke="#808080" stroke-linecap="round" stroke-linejoin="round"/>
<path id="Vector_6" d="M99.5049 76.0825H36.287L35.4521 86.7385H99.5049V76.0825Z" stroke="#808080" stroke-linecap="round" stroke-linejoin="round"/>
<path id="Vector_7" d="M99.5049 86.7388H36.287L35.4521 97.3876H99.5049V86.7388Z" stroke="#808080" stroke-linecap="round" stroke-linejoin="round"/>
<path id="Vector_8" d="M99.5049 97.3872H36.287L35.4521 108.043H99.5049V97.3872Z" stroke="#808080" stroke-linecap="round" stroke-linejoin="round"/>
<path id="Vector_9" d="M99.5049 108.043H36.287L35.4521 118.699H99.5049V108.043Z" stroke="#808080" stroke-linecap="round" stroke-linejoin="round"/>
<path id="Vector_10" d="M99.5049 118.699H36.287L35.4521 129.348H99.5049V118.699Z" stroke="#808080" stroke-linecap="round" stroke-linejoin="round"/>
<path id="Vector_11" d="M99.5049 129.348H36.287L35.4521 140.004H99.5049V129.348Z" stroke="#808080" stroke-linecap="round" stroke-linejoin="round"/>
<path id="Vector_12" d="M99.5049 140.004H36.287L35.4521 150.66H99.5049V140.004Z" stroke="#808080" stroke-linecap="round" stroke-linejoin="round"/>
<path id="Vector_13" d="M99.5049 150.66H36.287L35.4521 161.309H99.5049V150.66Z" stroke="#808080" stroke-linecap="round" stroke-linejoin="round"/>
<path id="Vector_14" d="M99.5049 161.309H36.287L35.4521 171.965H99.5049V161.309Z" stroke="#808080" stroke-linecap="round" stroke-linejoin="round"/>
<path id="Vector_15" d="M99.5049 171.965H36.287L35.4521 182.621H99.5049V171.965Z" stroke="#808080" stroke-linecap="round" stroke-linejoin="round"/>
<path id="Vector_16" d="M99.5049 182.621H36.287L35.4521 193.277H99.5049V182.621Z" stroke="#808080" stroke-linecap="round" stroke-linejoin="round"/>
<path id="Vector_17" d="M99.5049 193.277H36.287L35.4521 203.926H99.5049V193.277Z" stroke="#808080" stroke-linecap="round" stroke-linejoin="round"/>
<path id="Vector_18" d="M164.496 44.1216H101.278L100.443 54.7704H164.496V44.1216Z" stroke="#808080" stroke-linecap="round" stroke-linejoin="round"/>
<path id="Vector_19" d="M164.496 54.7705H101.278L100.443 65.4265H164.496V54.7705Z" stroke="#808080" stroke-linecap="round" stroke-linejoin="round"/>
<path id="Vector_20" d="M164.496 65.4268H101.278L100.443 76.0828H164.496V65.4268Z" stroke="#808080" stroke-linecap="round" stroke-linejoin="round"/>
<path id="Vector_21" d="M164.496 76.0825H101.278L100.443 86.7385H164.496V76.0825Z" stroke="#808080" stroke-linecap="round" stroke-linejoin="round"/>
<path id="Vector_22" d="M164.496 86.7388H101.278L100.443 97.3876H164.496V86.7388Z" stroke="#808080" stroke-linecap="round" stroke-linejoin="round"/>
<path id="Vector_23" d="M164.496 97.3872H101.278L100.443 108.043H164.496V97.3872Z" stroke="#808080" stroke-linecap="round" stroke-linejoin="round"/>
<path id="Vector_24" d="M164.496 108.043H101.278L100.443 118.699H164.496V108.043Z" stroke="#808080" stroke-linecap="round" stroke-linejoin="round"/>
<path id="Vector_25" d="M164.496 118.699H101.278L100.443 129.348H164.496V118.699Z" stroke="#808080" stroke-linecap="round" stroke-linejoin="round"/>
<path id="Vector_26" d="M164.496 129.348H101.278L100.443 140.004H164.496V129.348Z" stroke="#808080" stroke-linecap="round" stroke-linejoin="round"/>
<path id="Vector_27" d="M164.496 140.004H101.278L100.443 150.66H164.496V140.004Z" stroke="#808080" stroke-linecap="round" stroke-linejoin="round"/>
<path id="Vector_28" d="M164.496 150.66H101.278L100.443 161.309H164.496V150.66Z" stroke="#808080" stroke-linecap="round" stroke-linejoin="round"/>
<path id="Vector_29" d="M164.496 161.309H101.278L100.443 171.965H164.496V161.309Z" stroke="#808080" stroke-linecap="round" stroke-linejoin="round"/>
<path id="Vector_30" d="M164.496 171.965H101.278L100.443 182.621H164.496V171.965Z" stroke="#808080" stroke-linecap="round" stroke-linejoin="round"/>
<path id="Vector_31" d="M164.496 182.621H101.278L100.443 193.277H164.496V182.621Z" stroke="#808080" stroke-linecap="round" stroke-linejoin="round"/>
<path id="Vector_32" d="M164.496 193.277H101.278L100.443 203.926H164.496V193.277Z" stroke="#808080" stroke-linecap="round" stroke-linejoin="round"/>
<path id="Vector_33" d="M167.663 35.8706H33.9756V43.9058H167.663V35.8706Z" stroke="#808080" stroke-linecap="round" stroke-linejoin="round"/>
<path id="Vector_34" d="M167.663 43.9058V185.451" stroke="#808080" stroke-linecap="round" stroke-linejoin="round"/>
<path id="Vector_35" d="M166.207 44.1362V141.25" stroke="#808080" stroke-linecap="round" stroke-linejoin="round"/>
<path id="Vector_36" d="M168.608 185.141H166.814V188.748H168.608V185.141Z" fill="#263238" stroke="#808080" stroke-linecap="round" stroke-linejoin="round"/>
<path id="Vector_37" d="M166.987 140.472H165.193V144.079H166.987V140.472Z" fill="#263238" stroke="#808080" stroke-linecap="round" stroke-linejoin="round"/>
</g>
<g id="freepik--Plant--inject-63" filter="url(#filter0_d_224_563)">
<path id="Vector_38" d="M71.7603 193.932C71.7603 193.932 63.2733 189.015 62.6454 200.16C62.0175 211.306 60.4443 283.745 60.4443 283.745" stroke="#263238" stroke-width="2" stroke-linecap="round" stroke-linejoin="round"/>
<path id="Vector_39" d="M58.2432 201.139C58.2432 201.139 65.1432 217.202 62.0175 282.766" stroke="#263238" stroke-width="2" stroke-linecap="round" stroke-linejoin="round"/>
<path id="Vector_40" d="M65.04 196.178C65.04 196.178 61.7901 198.338 59.9478 195.862C58.1055 193.385 61.1967 188.834 58.4643 186.89C55.7319 184.946 51.0606 187.92 51.0606 187.92C51.0606 187.92 54.6831 189.029 54.5658 191.095C54.4485 193.162 52.7028 193.975 52.4958 193.039C52.2888 192.103 50.5293 187.589 47.583 189.482C46.7345 190.006 45.9964 190.703 45.413 191.532C44.8296 192.361 44.413 193.305 44.1882 194.306C44.1882 194.306 51.0468 193.543 51.4608 196.236C51.8748 198.929 48.6525 195.761 45.8235 195.588C42.9945 195.415 40.4139 195.847 40.6002 197.64C40.6628 199.217 40.5727 200.797 40.3311 202.356C41.88 201.014 43.8378 200.293 45.8511 200.326C48.963 200.52 48.8457 202.586 46.0167 202.414C43.1877 202.241 40.7106 205.042 40.7106 205.042C40.7106 205.042 43.2912 209.642 46.5687 211.918C49.8462 214.193 51.0261 213.358 51.3987 211.622C51.7713 209.887 50.9019 205.373 52.8822 205.495C54.8625 205.618 49.6047 213.286 52.1301 213.739C54.6555 214.193 56.691 213.43 57.3534 211.694L58.0434 209.959C58.0434 209.959 57.1602 205.459 57.5466 203.71C57.933 201.96 58.3953 203.76 58.8438 205.87C59.2923 207.979 59.5752 213.019 60.4377 212.774C61.3002 212.53 64.0671 208.858 64.7157 207.418C65.3643 205.978 61.0725 201.564 61.1208 200.678C61.1691 199.793 64.4811 201.478 64.9986 202.399C65.5161 203.321 66.0129 204.559 66.0129 204.559C66.0129 204.559 68.0829 203.206 68.0277 199.058C67.9725 194.911 65.04 196.178 65.04 196.178Z" fill="#181D3D"/>
<path id="Vector_41" opacity="0.3" d="M65.04 196.178C65.04 196.178 61.7901 198.338 59.9478 195.862C58.1055 193.385 61.1967 188.834 58.4643 186.89C55.7319 184.946 51.0606 187.92 51.0606 187.92C51.0606 187.92 54.6831 189.029 54.5658 191.095C54.4485 193.162 52.7028 193.975 52.4958 193.039C52.2888 192.103 50.5293 187.589 47.583 189.482C46.7345 190.006 45.9964 190.703 45.413 191.532C44.8296 192.361 44.413 193.305 44.1882 194.306C44.1882 194.306 51.0468 193.543 51.4608 196.236C51.8748 198.929 48.6525 195.761 45.8235 195.588C42.9945 195.415 40.4139 195.847 40.6002 197.64C40.6628 199.217 40.5727 200.797 40.3311 202.356C41.88 201.014 43.8378 200.293 45.8511 200.326C48.963 200.52 48.8457 202.586 46.0167 202.414C43.1877 202.241 40.7106 205.042 40.7106 205.042C40.7106 205.042 43.2912 209.642 46.5687 211.918C49.8462 214.193 51.0261 213.358 51.3987 211.622C51.7713 209.887 50.9019 205.373 52.8822 205.495C54.8625 205.618 49.6047 213.286 52.1301 213.739C54.6555 214.193 56.691 213.43 57.3534 211.694L58.0434 209.959C58.0434 209.959 57.1602 205.459 57.5466 203.71C57.933 201.96 58.3953 203.76 58.8438 205.87C59.2923 207.979 59.5752 213.019 60.4377 212.774C61.3002 212.53 64.0671 208.858 64.7157 207.418C65.3643 205.978 61.0725 201.564 61.1208 200.678C61.1691 199.793 64.4811 201.478 64.9986 202.399C65.5161 203.321 66.0129 204.559 66.0129 204.559C66.0129 204.559 68.0829 203.206 68.0277 199.058C67.9725 194.911 65.04 196.178 65.04 196.178Z" fill="#263238"/>
<path id="Vector_42" d="M48.5898 205.92C50.7012 203.191 53.82 199.498 56.4351 197.734" stroke="#263238" stroke-linecap="round" stroke-linejoin="round"/>
<path id="Vector_43" d="M46.1338 209.225C46.1338 209.225 46.6789 208.44 47.5621 207.259" stroke="#263238" stroke-linecap="round" stroke-linejoin="round"/>
<path id="Vector_44" d="M57.8154 198.396C57.8154 198.396 60.9618 203.033 61.5414 207.806" stroke="#263238" stroke-linecap="round" stroke-linejoin="round"/>
<path id="Vector_45" d="M54.2549 201.139C54.2549 201.139 55.1381 200.599 54.8069 206.503" stroke="#263238" stroke-linecap="round" stroke-linejoin="round"/>
<path id="Vector_46" d="M56.5801 195.653C56.5801 195.653 58.3741 193.99 57.4288 190.67" stroke="#263238" stroke-linecap="round" stroke-linejoin="round"/>
<path id="Vector_47" d="M54.1242 198.468L52.8408 196.02" stroke="#263238" stroke-linecap="round" stroke-linejoin="round"/>
<path id="Vector_48" d="M51.4257 200.966C51.4257 200.966 47.3547 197.755 44.8086 197.597" stroke="#263238" stroke-linecap="round" stroke-linejoin="round"/>
<path id="Vector_49" d="M76.5903 187.431C76.5903 187.431 76.4661 192.298 72.8229 192.535C69.1797 192.773 66.9303 186.437 63.2043 187.963C59.4783 189.49 59.1195 196.431 59.1195 196.431C59.1195 196.431 62.6523 193.399 64.5567 194.926C66.4611 196.452 66.0195 198.814 64.9914 198.439C63.9633 198.065 58.4226 196.776 58.2363 201.139C58.159 202.383 58.324 203.631 58.7213 204.806C59.1185 205.982 59.7399 207.061 60.5478 207.979C60.5478 207.979 64.4877 200.297 67.3512 201.701C70.2147 203.105 64.9845 204.315 62.8938 207.151C60.8031 209.988 59.4438 212.976 61.2999 214.006C62.8571 215.015 64.3134 216.185 65.6469 217.498C65.4107 214.971 66.0495 212.44 67.4478 210.363C69.7524 207.245 71.6568 208.779 69.5592 211.608C67.4616 214.438 68.5173 218.88 68.5173 218.88C68.5173 218.88 74.6859 219.319 79.1019 217.44C83.5179 215.561 83.5455 213.783 82.1241 212.184C80.7027 210.586 75.783 208.447 77.2527 206.46C78.7224 204.473 82.4967 215.194 84.6495 212.861C86.8023 210.528 87.4578 207.886 86.2503 206.014L85.0359 204.135C85.0359 204.135 80.1231 201.975 78.7017 200.391C77.2803 198.807 79.3296 199.541 81.648 200.506C83.9664 201.471 89.0103 204.617 89.3691 203.544C89.7279 202.471 88.0788 197.064 87.1335 195.423C86.1882 193.781 79.0398 195.243 78.2256 194.587C77.4114 193.932 81.2823 191.621 82.5174 191.707C83.4435 191.788 84.3649 191.92 85.2774 192.103C85.2774 192.103 85.3878 189.022 81.372 186.25C77.3562 183.478 76.5903 187.431 76.5903 187.431Z" fill="#181D3D"/>
<path id="Vector_50" opacity="0.2" d="M76.5903 187.431C76.5903 187.431 76.4661 192.298 72.8229 192.535C69.1797 192.773 66.9303 186.437 63.2043 187.963C59.4783 189.49 59.1195 196.431 59.1195 196.431C59.1195 196.431 62.6523 193.399 64.5567 194.926C66.4611 196.452 66.0195 198.814 64.9914 198.439C63.9633 198.065 58.4226 196.776 58.2363 201.139C58.159 202.383 58.324 203.631 58.7213 204.806C59.1185 205.982 59.7399 207.061 60.5478 207.979C60.5478 207.979 64.4877 200.297 67.3512 201.701C70.2147 203.105 64.9845 204.315 62.8938 207.151C60.8031 209.988 59.4438 212.976 61.2999 214.006C62.8571 215.015 64.3134 216.185 65.6469 217.498C65.4107 214.971 66.0495 212.44 67.4478 210.363C69.7524 207.245 71.6568 208.779 69.5592 211.608C67.4616 214.438 68.5173 218.88 68.5173 218.88C68.5173 218.88 74.6859 219.319 79.1019 217.44C83.5179 215.561 83.5455 213.783 82.1241 212.184C80.7027 210.586 75.783 208.447 77.2527 206.46C78.7224 204.473 82.4967 215.194 84.6495 212.861C86.8023 210.528 87.4578 207.886 86.2503 206.014L85.0359 204.135C85.0359 204.135 80.1231 201.975 78.7017 200.391C77.2803 198.807 79.3296 199.541 81.648 200.506C83.9664 201.471 89.0103 204.617 89.3691 203.544C89.7279 202.471 88.0788 197.064 87.1335 195.423C86.1882 193.781 79.0398 195.243 78.2256 194.587C77.4114 193.932 81.2823 191.621 82.5174 191.707C83.4435 191.788 84.3649 191.92 85.2774 192.103C85.2774 192.103 85.3878 189.022 81.372 186.25C77.3562 183.478 76.5903 187.431 76.5903 187.431Z" fill="#263238"/>
<path id="Vector_51" d="M74.7207 211.241C73.5477 207.173 72.1263 201.398 72.216 197.467" stroke="#263238" stroke-linecap="round" stroke-linejoin="round"/>
<path id="Vector_52" d="M76.239 216.072C76.239 216.072 75.8526 214.963 75.3213 213.243" stroke="#263238" stroke-linecap="round" stroke-linejoin="round"/>
<path id="Vector_53" d="M73.8301 196.488C73.8301 196.488 80.4196 196.366 85.3945 199.008" stroke="#263238" stroke-linecap="round" stroke-linejoin="round"/>
<path id="Vector_54" d="M74.0166 202.075C74.0166 202.075 74.0994 200.787 79.5366 205.157" stroke="#263238" stroke-linecap="round" stroke-linejoin="round"/>
<path id="Vector_55" d="M70.3183 195.941C70.3183 195.941 69.9457 192.924 66.1162 191.657" stroke="#263238" stroke-linecap="round" stroke-linejoin="round"/>
<path id="Vector_56" d="M71.36 200.39L68.1377 200.059" stroke="#263238" stroke-linecap="round" stroke-linejoin="round"/>
<path id="Vector_57" d="M71.9196 204.912C71.9196 204.912 66.0615 206.979 64.1709 209.52" stroke="#263238" stroke-linecap="round" stroke-linejoin="round"/>
<path id="Vector_58" d="M37.5156 219.831C37.5156 219.831 56.049 232.611 55.7316 282.111" stroke="#263238" stroke-width="2" stroke-linecap="round" stroke-linejoin="round"/>
<path id="Vector_59" d="M60.3689 216.454C60.3689 216.454 59.7755 222.055 55.5389 221.969C51.3023 221.883 49.3013 214.351 44.8508 215.748C40.4003 217.145 39.3722 225.108 39.3722 225.108C39.3722 225.108 43.7261 221.955 45.7823 223.913C47.8385 225.871 47.1209 228.543 45.9686 228.01C44.8163 227.477 38.5442 225.439 37.9232 230.458C37.7248 231.886 37.8059 233.341 38.1617 234.736C38.5175 236.131 39.1406 237.436 39.9932 238.572C39.9932 238.572 45.2372 230.098 48.4112 231.999C51.5852 233.899 45.4442 234.785 42.7739 237.852C40.1036 240.919 38.282 244.231 40.3106 245.599C42.0193 246.918 43.5959 248.414 45.0164 250.063C45.0164 250.063 44.8025 245.383 47.7764 242.007C50.7503 238.63 52.772 240.567 50.1017 243.655C47.4314 246.744 48.1904 252 48.1904 252C48.1904 252 55.2767 253.116 60.5414 251.388C65.8061 249.66 65.9924 247.601 64.4951 245.628C62.9978 243.655 57.5261 240.689 59.396 238.543C61.2659 236.398 64.6538 249.12 67.3517 246.629C70.0496 244.138 71.0432 241.164 69.815 238.875L68.5868 236.585C68.5868 236.585 63.1082 233.626 61.6178 231.646C60.1274 229.666 62.4182 230.731 65.0126 232.071C67.607 233.41 73.1339 237.535 73.6376 236.34C74.1413 235.145 72.7337 228.751 71.8022 226.743C70.8707 224.734 62.4734 225.735 61.5902 224.899C60.707 224.064 65.3852 221.782 66.8066 222.019C67.8598 222.202 68.9031 222.443 69.9323 222.739C69.9323 222.739 70.3325 219.197 65.951 215.597C61.5695 211.997 60.3689 216.454 60.3689 216.454Z" fill="#181D3D"/>
<path id="Vector_60" opacity="0.3" d="M60.3689 216.454C60.3689 216.454 59.7755 222.055 55.5389 221.969C51.3023 221.883 49.3013 214.351 44.8508 215.748C40.4003 217.145 39.3722 225.108 39.3722 225.108C39.3722 225.108 43.7261 221.955 45.7823 223.913C47.8385 225.871 47.1209 228.543 45.9686 228.01C44.8163 227.477 38.5442 225.439 37.9232 230.458C37.7248 231.886 37.8059 233.341 38.1617 234.736C38.5175 236.131 39.1406 237.436 39.9932 238.572C39.9932 238.572 45.2372 230.098 48.4112 231.999C51.5852 233.899 45.4442 234.785 42.7739 237.852C40.1036 240.919 38.282 244.231 40.3106 245.599C42.0193 246.918 43.5959 248.414 45.0164 250.063C45.0164 250.063 44.8025 245.383 47.7764 242.007C50.7503 238.63 52.772 240.567 50.1017 243.655C47.4314 246.744 48.1904 252 48.1904 252C48.1904 252 55.2767 253.116 60.5414 251.388C65.8061 249.66 65.9924 247.601 64.4951 245.628C62.9978 243.655 57.5261 240.689 59.396 238.543C61.2659 236.398 64.6538 249.12 67.3517 246.629C70.0496 244.138 71.0432 241.164 69.815 238.875L68.5868 236.585C68.5868 236.585 63.1082 233.626 61.6178 231.646C60.1274 229.666 62.4182 230.731 65.0126 232.071C67.607 233.41 73.1339 237.535 73.6376 236.34C74.1413 235.145 72.7337 228.751 71.8022 226.743C70.8707 224.734 62.4734 225.735 61.5902 224.899C60.707 224.064 65.3852 221.782 66.8066 222.019C67.8598 222.202 68.9031 222.443 69.9323 222.739C69.9323 222.739 70.3325 219.197 65.951 215.597C61.5695 211.997 60.3689 216.454 60.3689 216.454Z" fill="#263238"/>
<path id="Vector_61" d="M56.0494 243.749C55.0558 238.932 53.9794 232.128 54.4003 227.599" stroke="#263238" stroke-linecap="round" stroke-linejoin="round"/>
<path id="Vector_62" d="M57.36 249.466C57.36 249.466 57.015 248.155 56.5527 246.11" stroke="#263238" stroke-linecap="round" stroke-linejoin="round"/>
<path id="Vector_63" d="M56.3252 226.627C56.3252 226.627 63.9152 227.131 69.4352 230.674" stroke="#263238" stroke-linecap="round" stroke-linejoin="round"/>
<path id="Vector_64" d="M56.0557 233.093C56.0557 233.093 56.2696 231.617 62.1484 237.197" stroke="#263238" stroke-linecap="round" stroke-linejoin="round"/>
<path id="Vector_65" d="M52.3441 225.648C52.3441 225.648 52.1854 222.135 47.8867 220.292" stroke="#263238" stroke-linecap="round" stroke-linejoin="round"/>
<path id="Vector_66" d="M53.1446 230.89L49.46 230.191" stroke="#263238" stroke-linecap="round" stroke-linejoin="round"/>
<path id="Vector_67" d="M53.3857 236.16C53.3857 236.16 46.4374 237.975 44.0293 240.732" stroke="#263238" stroke-linecap="round" stroke-linejoin="round"/>
<path id="Vector_68" d="M44.7402 258.833C44.7402 258.833 56.6772 268.344 57.9606 282.435L55.449 235.231" stroke="#263238" stroke-width="2" stroke-linecap="round" stroke-linejoin="round"/>
<path id="Vector_69" d="M73.6377 251.95C57.9609 248.998 57.9609 282.434 57.9609 282.434" stroke="#263238" stroke-width="2" stroke-linecap="round" stroke-linejoin="round"/>
<path id="Vector_70" d="M59.817 282.11C59.817 282.11 50.709 212.947 77.067 212.947" stroke="#263238" stroke-width="2" stroke-linecap="round" stroke-linejoin="round"/>
<path id="Vector_71" d="M67.6547 249.962C65.5088 247.442 60.9479 247.442 58.2707 253.879C55.5935 260.316 58.0016 259.2 58.0016 259.2C58.0016 259.2 63.0938 257.522 66.2816 256.399C69.4694 255.276 73.8302 252.482 74.0924 254.16C74.3546 255.838 71.9465 257.522 68.9933 258.077C66.0401 258.631 58.2707 260.878 59.0711 262.555C59.8715 264.233 61.7552 269.28 61.7552 269.28C64.0497 267.249 66.47 265.378 69.0002 263.678C72.4916 261.439 74.6375 262.238 72.7538 264.794C70.8701 267.35 65.5157 270.115 66.5852 273.47C67.6547 276.826 74.0993 281.023 74.0993 281.023C74.0993 281.023 74.8997 274.032 76.7765 271.793C78.6533 269.554 78.6602 272.074 78.122 275.99C77.8528 277.659 77.6731 279.341 77.5838 281.03L85.091 283.831C86.3188 281.881 87.6623 280.012 89.1137 278.237L90.4937 276.833C90.4937 276.833 84.5942 271.519 84.3251 268.157C84.056 264.794 88.3478 268.157 89.6864 268.718C91.025 269.28 93.1709 273.197 93.1709 273.197C93.1709 273.197 94.5164 266.76 94.7855 264.521L95.0477 262.282C95.0477 262.282 89.4173 260.042 87.2714 260.042C85.1255 260.042 84.056 261.72 84.056 259.488C84.056 257.256 86.2019 255.845 88.6169 256.126C90.7994 256.507 92.9497 257.068 95.0477 257.803C95.0477 257.803 96.6623 256.406 96.1241 252.209C95.5859 248.011 94.2473 248.011 91.025 249.127C87.8027 250.243 85.6637 252.77 83.2487 252.77C80.8337 252.77 82.1792 249.689 83.7869 248.854C85.3946 248.018 89.4173 246.334 90.2246 246.053C91.0319 245.772 85.9328 241.855 83.2487 241.294C80.5646 240.732 77.0939 242.734 77.3492 245.491C77.846 251.359 69.8006 252.482 67.6547 249.962Z" fill="#181D3D"/>
<path id="Vector_72" d="M84.9189 278.777C85.0017 279.622 85.0569 280.464 85.0845 281.304" stroke="#263238" stroke-linecap="round" stroke-linejoin="round"/>
<path id="Vector_73" d="M79.5303 258.689C81.8871 264.231 83.5834 270.054 84.5811 276.027" stroke="#263238" stroke-linecap="round" stroke-linejoin="round"/>
<path id="Vector_74" d="M78.5636 256.442C77.2388 253.462 76.2383 251.64 76.2383 251.64C77.7018 250.921 78.9182 249.749 79.7228 248.285C80.3487 246.957 81.2689 245.805 82.4069 244.922" stroke="#263238" stroke-linecap="round" stroke-linejoin="round"/>
<path id="Vector_75" d="M66.8477 261.158C66.8477 261.158 76.5077 256.961 76.5077 257.796" stroke="#263238" stroke-linecap="round" stroke-linejoin="round"/>
<path id="Vector_76" d="M81.8691 255.838C81.8691 255.838 86.1609 253.599 89.9145 253.599" stroke="#263238" stroke-linecap="round" stroke-linejoin="round"/>
<path id="Vector_77" d="M80.2609 262.555C78.3995 264.152 76.6917 265.934 75.1618 267.876C73.5961 269.804 72.3295 271.976 71.4082 274.313" stroke="#263238" stroke-linecap="round" stroke-linejoin="round"/>
<path id="Vector_78" d="M83.208 263.679C83.208 263.679 88.8384 261.994 91.7916 264.795" stroke="#263238" stroke-linecap="round" stroke-linejoin="round"/>
<path id="Vector_79" d="M93.4122 225.864C90.4935 224.064 87.2643 224.021 85.6773 222.12C84.0903 220.22 87.2022 219.24 88.8651 219.96C90.528 220.68 94.3851 222.747 95.1096 223.193C95.8341 223.64 95.3373 217.066 93.9849 214.553C92.6325 212.04 88.9272 210.629 87.0849 212.66C83.1795 216.936 77.1006 211.328 77.5146 207.987C77.9286 204.646 74.9409 201.053 68.5446 203.156C62.1483 205.258 64.5219 206.432 64.5219 206.432C64.5219 206.432 69.0759 209.348 71.9946 211.148C74.9133 212.948 79.7571 214.496 78.7152 215.806C77.6733 217.116 74.8788 216.317 72.5052 214.366C70.1316 212.415 63.48 207.785 62.79 209.52C62.1 211.256 59.685 216.036 59.685 216.036C62.6575 216.512 65.5964 217.192 68.4825 218.074C72.3879 219.356 73.1883 221.595 70.1316 221.768C67.0749 221.94 61.5411 219.55 59.7816 222.596C58.0221 225.641 59.2365 233.468 59.2365 233.468C59.2365 233.468 64.8255 229.515 67.6752 229.522C70.5249 229.529 68.7033 231.185 65.5155 233.331C64.1329 234.211 62.7991 235.173 61.5204 236.211L64.4184 243.965C66.6349 243.652 68.8679 243.484 71.1045 243.461L72.9951 243.605C72.9951 243.605 72.9951 235.469 75.2307 233.057C77.4663 230.645 77.8665 236.225 78.3426 237.651C78.8187 239.076 77.3835 243.332 77.3835 243.332C77.3835 243.332 82.9035 240.171 84.7182 238.911L86.5122 237.658C86.5122 237.658 84.4422 231.747 83.0622 230.062C81.6822 228.377 79.7433 228.622 81.3579 227.182C82.9725 225.742 85.4013 226.462 86.7813 228.579C87.932 230.54 88.9311 232.594 89.769 234.72C89.769 234.72 91.839 235.073 94.5231 231.898C97.2072 228.723 96.3309 227.664 93.4122 225.864ZM68.0271 234.821C65.8881 233.698 70.9803 231.466 70.9803 231.466C72.8571 231.185 70.173 235.937 68.0271 234.821ZM71.6427 224.374C70.7319 223.899 73.4712 222.934 73.4712 222.934C77.4387 223.74 72.5604 224.849 71.6427 224.374Z" fill="#181D3D"/>
<path id="Vector_80" d="M67.972 240.523C67.4131 241.135 66.8404 241.733 66.2539 242.309" stroke="#263238" stroke-linecap="round" stroke-linejoin="round"/>
<path id="Vector_81" d="M78.9774 223.106C76.5128 228.597 73.4097 233.75 69.7383 238.45" stroke="#263238" stroke-linecap="round" stroke-linejoin="round"/>
<path id="Vector_82" d="M79.9717 220.874C81.262 217.872 81.9175 215.892 81.9175 215.892C83.4007 216.571 85.0472 216.762 86.6371 216.439C88.0063 216.062 89.442 216.03 90.8254 216.346" stroke="#263238" stroke-linecap="round" stroke-linejoin="round"/>
<path id="Vector_83" d="M77.639 220.14C78.2462 219.586 68.876 214.733 68.876 214.733" stroke="#263238" stroke-linecap="round" stroke-linejoin="round"/>
<path id="Vector_84" d="M82.5732 223.078C82.5732 223.078 87.003 224.993 89.4732 227.952" stroke="#263238" stroke-linecap="round" stroke-linejoin="round"/>
<path id="Vector_85" d="M76.6592 226.217C74.2848 225.797 71.8769 225.618 69.4694 225.684C67.0475 225.716 64.6451 226.141 62.3486 226.944" stroke="#263238" stroke-linecap="round" stroke-linejoin="round"/>
<path id="Vector_86" d="M77.7842 229.277C77.7842 229.277 82.6901 232.61 82.6142 236.772" stroke="#263238" stroke-linecap="round" stroke-linejoin="round"/>
<path id="Vector_87" d="M51.7505 264.636C49.4045 263.196 46.8032 263.16 45.5405 261.626C44.2778 260.093 46.7618 259.322 48.1004 259.898C49.439 260.474 52.5371 262.145 53.1305 262.505C53.7239 262.865 53.3099 257.566 52.2197 255.571C51.1295 253.577 48.1487 252.418 46.6652 254.045C43.5257 257.486 38.6267 252.979 38.9579 250.286C39.2891 247.594 36.8879 244.706 31.7267 246.398C26.5655 248.09 28.4906 249.034 28.4906 249.034C28.4906 249.034 32.1545 251.381 34.5074 252.835C36.8603 254.29 40.7174 255.528 39.9101 256.579C39.1028 257.63 36.8258 256.997 34.9421 255.42C33.0584 253.843 27.6557 250.092 27.0968 251.489C26.5379 252.886 24.6059 256.73 24.6059 256.73C26.9975 257.116 29.3624 257.664 31.6853 258.372C34.8248 259.402 35.4665 261.202 33.0101 261.346C30.5537 261.49 26.1101 259.553 24.7301 262.008C23.3501 264.463 24.2954 270.756 24.2954 270.756C24.2954 270.756 28.7942 267.574 31.085 267.581C33.3758 267.588 31.913 268.92 29.3531 270.648C28.2393 271.359 27.1636 272.133 26.1308 272.966L28.463 279.202C30.2472 278.952 32.0448 278.819 33.845 278.806L35.3699 278.914C35.3699 278.914 35.3699 272.369 37.1639 270.425C38.9579 268.481 39.2891 272.981 39.6686 274.126C40.0481 275.27 38.9027 278.698 38.9027 278.698C38.9027 278.698 43.3601 276.149 44.8022 275.141L46.2512 274.126C46.2512 274.126 44.5814 269.374 43.4498 268.013C42.3182 266.652 40.7726 266.861 42.0698 265.68C43.367 264.499 45.3197 265.118 46.4306 266.796C47.3609 268.384 48.1706 270.045 48.8525 271.764C48.8525 271.764 50.5154 272.052 52.6751 269.496C54.8348 266.94 54.0896 266.09 51.7505 264.636ZM31.3265 271.836C29.6015 270.929 33.7001 269.129 33.7001 269.129C35.1905 268.92 33.0377 272.75 31.3127 271.85L31.3265 271.836ZM34.2314 263.426C33.5 263.038 35.708 262.274 35.708 262.274C38.882 262.93 34.9559 263.822 34.2176 263.441L34.2314 263.426Z" fill="#181D3D"/>
<path id="Vector_88" d="M31.2648 276.437C30.8163 276.934 30.3609 277.409 29.8848 277.877" stroke="#263238" stroke-linecap="round" stroke-linejoin="round"/>
<path id="Vector_89" d="M40.1237 262.418C38.142 266.837 35.6461 270.985 32.6924 274.766" stroke="#263238" stroke-linecap="round" stroke-linejoin="round"/>
<path id="Vector_90" d="M40.9248 260.64C41.9598 258.221 42.4911 256.63 42.4911 256.63C43.6841 257.175 45.0077 257.328 46.2861 257.069C47.3869 256.765 48.5415 256.74 49.6533 256.997" stroke="#263238" stroke-linecap="round" stroke-linejoin="round"/>
<path id="Vector_91" d="M31.9961 255.679C31.9961 255.679 39.5378 259.589 39.0479 260.035" stroke="#263238" stroke-linecap="round" stroke-linejoin="round"/>
<path id="Vector_92" d="M43.0146 262.397C43.0146 262.397 46.5819 263.938 48.5346 266.321" stroke="#263238" stroke-linecap="round" stroke-linejoin="round"/>
<path id="Vector_93" d="M38.2543 264.96C36.3447 264.623 34.4082 264.481 32.4721 264.535C30.5239 264.558 28.5912 264.9 26.7451 265.55" stroke="#263238" stroke-linecap="round" stroke-linejoin="round"/>
<path id="Vector_94" d="M39.1582 267.387C39.1582 267.387 43.1119 270.072 43.036 273.42" stroke="#263238" stroke-linecap="round" stroke-linejoin="round"/>
<path id="Vector_95" d="M42.1595 218.427C42.1595 218.427 39.2063 220.666 37.3295 218.427C35.4527 216.187 38.1368 211.709 35.4527 210.031C32.7686 208.354 28.4768 211.471 28.4768 211.471C28.4768 211.471 31.9682 212.307 31.9682 214.265C31.9682 216.223 30.3536 217.066 30.0914 216.223C29.8292 215.381 27.9455 211.183 25.2614 213.149C24.4868 213.692 23.8258 214.393 23.3182 215.209C22.8106 216.026 22.467 216.942 22.3082 217.901C22.3082 217.901 28.7459 216.785 29.2841 219.341C29.8223 221.897 26.6 219.06 23.9228 219.06C21.2456 219.06 18.8237 219.622 19.0928 221.299C19.2388 222.788 19.2388 224.289 19.0928 225.778C20.482 224.421 22.2906 223.626 24.1919 223.539C27.1382 223.539 27.1382 225.497 24.4541 225.497C21.77 225.497 19.6241 228.298 19.6241 228.298C19.6241 228.298 22.3013 232.495 25.5236 234.454C28.7459 236.412 29.8154 235.57 30.0845 233.892C30.3536 232.215 29.2772 228.017 31.154 228.017C33.0308 228.017 28.4699 235.57 30.8849 235.851C33.2999 236.131 35.1767 235.289 35.7149 233.611L36.2531 231.934C36.2531 231.934 35.1767 227.736 35.4458 226.059C35.7149 224.381 36.2531 226.059 36.7844 228.017C37.3157 229.975 37.8608 234.727 38.6612 234.454C39.4616 234.18 41.8835 230.53 42.4217 229.133C42.9599 227.736 38.6405 223.747 38.6405 222.905C38.6405 222.063 41.8628 223.467 42.401 224.302C42.9392 225.137 43.4705 226.26 43.4705 226.26C43.4705 226.26 45.3473 224.863 45.0782 220.947C44.8091 217.03 42.1595 218.427 42.1595 218.427Z" fill="#181D3D"/>
<path id="Vector_96" d="M27.1309 228.578C28.987 225.878 31.7332 222.206 34.1137 220.385" stroke="#263238" stroke-linecap="round" stroke-linejoin="round"/>
<path id="Vector_97" d="M24.9922 231.84C24.9922 231.84 25.4614 231.062 26.2342 229.896" stroke="#263238" stroke-linecap="round" stroke-linejoin="round"/>
<path id="Vector_98" d="M35.4531 220.946C35.4531 220.946 38.6685 225.144 39.4758 229.622" stroke="#263238" stroke-linecap="round" stroke-linejoin="round"/>
<path id="Vector_99" d="M32.2373 223.747C32.2373 223.747 33.0377 223.186 33.0377 228.787" stroke="#263238" stroke-linecap="round" stroke-linejoin="round"/>
<path id="Vector_100" d="M34.1143 218.427C34.1143 218.427 35.722 216.749 34.6456 213.667" stroke="#263238" stroke-linecap="round" stroke-linejoin="round"/>
<path id="Vector_101" d="M31.9685 221.227L30.623 218.988" stroke="#263238" stroke-linecap="round" stroke-linejoin="round"/>
<path id="Vector_102" d="M29.5529 223.747C29.5529 223.747 25.5302 220.946 23.1152 220.946" stroke="#263238" stroke-linecap="round" stroke-linejoin="round"/>
<path id="Vector_103" d="M69.2423 281.124H48.5078V312.264H69.2423V281.124Z" fill="#CA5050" stroke="#263238" stroke-width="2" stroke-linecap="round" stroke-linejoin="round"/>
</g>
<g id="freepik--Door--inject-63">
<path id="Vector_104" d="M317.704 35.8345H181.284V309.19H317.704V35.8345Z" stroke="#808080" stroke-linecap="round" stroke-linejoin="round"/>
<path id="Vector_105" d="M297.391 94.9897H273.613V204.48H297.391V94.9897Z" stroke="#808080" stroke-linecap="round" stroke-linejoin="round"/>
<path id="Vector_106" d="M310.501 174.24H303.283V204.48H310.501V174.24Z" stroke="#808080" stroke-linecap="round" stroke-linejoin="round"/>
</g>
<g id="freepik--Floor--inject-63">
<path id="Vector_107" d="M322.92 309.189H21.3281" stroke="#263238" stroke-linecap="round" stroke-linejoin="round"/>
<path id="Vector_108" d="M334.623 309.189H328.44" stroke="#263238" stroke-linecap="round" stroke-linejoin="round"/>
</g>
<g id="freepik--character-2--inject-63">
<path id="Vector_109" d="M215.625 337.68C240.585 337.68 260.82 333.812 260.82 329.04C260.82 324.268 240.585 320.4 215.625 320.4C190.664 320.4 170.43 324.268 170.43 329.04C170.43 333.812 190.664 337.68 215.625 337.68Z" fill="#263238" stroke="#263238" stroke-width="2" stroke-linecap="round" stroke-linejoin="round"/>
<path id="Vector_110" d="M207.821 92.4624C206.66 92.1203 205.616 91.4415 204.809 90.5047C204.003 89.568 203.468 88.4117 203.267 87.1704C202.322 82.656 210.374 81.36 213.79 78.9912C217.205 76.6224 224.443 76.3344 229.66 77.2776C234.876 78.2208 241.776 80.64 243.487 84.528C245.198 88.416 248.434 96.2928 247.931 101.189C247.657 104.634 246.65 107.971 244.984 110.959C243.908 112.86 244.605 114.559 244.86 115.538C245.116 116.518 244.577 116.611 243.135 118.649C241.693 120.686 241.445 121.399 236.746 120.874C232.047 120.348 230.356 117.95 229.156 116.158C227.955 114.365 225.34 107.1 223.222 103.738C221.104 100.375 220.627 96.4656 217.198 93.8808C213.769 91.296 211.83 91.0728 207.821 92.4624Z" fill="#EBEBEB" stroke="#B0B0B0" stroke-linecap="round" stroke-linejoin="round"/>
<path id="Vector_111" d="M186.845 316.901C186.845 316.901 185.99 321.135 184.278 323.143C182.567 325.152 178.938 328.493 180.435 331.387C181.932 334.282 190.261 337.407 195.174 335.621C200.086 333.835 199.659 329.141 202.218 326.931C204.778 324.72 205.668 323.143 204.571 319.126C203.474 315.108 197.733 311.105 193.89 310.212C190.047 309.319 186.845 316.901 186.845 316.901Z" fill="white" stroke="#263238" stroke-linecap="round" stroke-linejoin="round"/>
<path id="Vector_112" d="M203.501 325.145C202.432 326.261 200.299 327.377 199.23 328.939C198.16 330.501 197.305 333.842 194.959 333.842C192.613 333.842 189.618 331.833 188.121 330.494C186.624 329.155 184.705 330.494 183.422 331.387C182.776 331.828 182.103 332.225 181.407 332.575C184.167 335.045 190.929 337.161 195.173 335.621C200.086 333.842 199.658 329.141 202.218 326.93C203.508 325.807 204.364 324.857 204.764 323.676C204.295 324.259 203.832 324.799 203.501 325.145Z" fill="#181D3D" stroke="#263238" stroke-linecap="round" stroke-linejoin="round"/>
<path id="Vector_113" d="M240.25 311.4C240.25 311.4 241.134 315.799 242.907 317.88C244.68 319.961 248.427 323.438 246.902 326.448C245.377 329.457 236.697 332.697 231.598 330.84C226.499 328.982 226.94 324.129 224.249 321.84C221.558 319.55 220.703 317.901 221.814 313.74C222.924 309.578 228.907 305.409 232.902 304.481C236.897 303.552 240.25 311.4 240.25 311.4Z" fill="white" stroke="#263238" stroke-linecap="round" stroke-linejoin="round"/>
<path id="Vector_114" d="M222.946 319.968C224.057 321.12 226.272 322.279 227.383 323.899C228.493 325.519 229.384 328.989 231.819 328.989C234.255 328.989 237.339 326.909 238.919 325.519C240.499 324.129 242.466 325.519 243.798 326.448C244.462 326.904 245.153 327.315 245.868 327.679C243.025 330.242 235.98 332.438 231.578 330.84C226.479 328.989 226.92 324.129 224.257 321.818C222.918 320.652 222.028 319.658 221.621 318.441C222.132 319.039 222.601 319.608 222.946 319.968Z" fill="#181D3D" stroke="#263238" stroke-linecap="round" stroke-linejoin="round"/>
<path id="Vector_115" d="M186.348 193.601C186.348 193.601 185.244 210.262 185.244 217.44C185.244 224.618 184.133 236.88 184.133 238.5C184.133 240.12 182.139 270.67 182.36 280.62C182.581 290.57 188.791 307.699 188.791 307.699C188.791 307.699 184.575 307.93 184.796 310.478C185.016 313.027 186.99 318.578 186.99 318.578C186.99 318.578 189.653 317.65 195.194 317.65C200.735 317.65 206.31 321.84 206.31 321.84C206.31 321.84 206.089 319.061 207.421 314.201C208.752 309.341 206.31 308.16 206.537 303.998C206.765 299.837 207.227 277.15 208.311 271.361C209.394 265.572 214.742 237.802 214.742 237.802C214.742 237.802 221.172 266.969 222.725 269.741C223.65 271.423 223.966 273.395 223.615 275.299C223.615 275.299 222.725 276.919 220.952 282.701C219.178 288.482 219.62 293.58 220.061 297.979C220.331 300.051 220.481 302.138 220.51 304.229C220.51 305.15 219.399 305.618 219.178 307.699C218.957 309.78 221.393 315.108 221.393 315.108C221.393 315.108 227.603 313.02 232.04 313.02C235.2 313.131 238.331 313.676 241.355 314.64C241.999 313.111 242.303 311.449 242.245 309.78C242.024 307.469 241.555 303.761 241.555 300.989C241.555 298.217 246.212 274.349 246.212 268.819C246.212 263.29 248.876 237.571 248.876 236.182C248.876 234.792 250.208 212.81 250.208 205.862C250.153 200.99 249.858 196.123 249.324 191.282L187.438 186.653L186.348 193.601Z" fill="#666666" stroke="#263238" stroke-linecap="round" stroke-linejoin="round"/>
<path id="Vector_116" d="M205.647 230.169L214.742 237.801L206.758 234.331" stroke="#263238" stroke-linecap="round" stroke-linejoin="round"/>
<path id="Vector_117" d="M211.83 213.041C211.83 213.041 211.14 224.611 211.14 225.771" stroke="#263238" stroke-linecap="round" stroke-linejoin="round"/>
<path id="Vector_118" d="M214.741 212.811L214.521 220.911" stroke="#263238" stroke-linecap="round" stroke-linejoin="round"/>
<path id="Vector_119" d="M197.443 210.96L196.553 220.212" stroke="#263238" stroke-linecap="round" stroke-linejoin="round"/>
<path id="Vector_120" d="M199.217 210.96L199.658 220.212" stroke="#263238" stroke-linecap="round" stroke-linejoin="round"/>
<path id="Vector_121" d="M233.371 211.421L233.813 222.3" stroke="#263238" stroke-linecap="round" stroke-linejoin="round"/>
<path id="Vector_122" d="M235.365 211.651L237.808 219.982" stroke="#263238" stroke-linecap="round" stroke-linejoin="round"/>
<path id="Vector_123" d="M205.868 305.388C205.868 305.388 203.653 299.139 202.763 295.2C201.873 291.262 200.548 282.24 200.548 282.24" stroke="#263238" stroke-linecap="round" stroke-linejoin="round"/>
<path id="Vector_124" d="M223.615 271.829C223.615 271.829 226.72 282.24 230.267 284.789" stroke="#263238" stroke-linecap="round" stroke-linejoin="round"/>
<path id="Vector_125" d="M189.46 316.26C189.46 316.26 200.327 311.4 202.763 312.559C205.199 313.718 202.984 315.108 200.327 314.64" stroke="#263238" stroke-linecap="round" stroke-linejoin="round"/>
<path id="Vector_126" d="M239.14 311.631C239.14 311.631 235.814 311.868 229.825 310.479C223.835 309.089 220.289 309.759 222.062 310.479C223.2 310.914 224.397 311.157 225.609 311.199" stroke="#263238" stroke-linecap="round" stroke-linejoin="round"/>
<path id="Vector_127" d="M203.764 122.976C203.764 122.976 190.536 121.162 185.982 125.906C182.04 130.005 179.761 135.531 179.621 141.336C179.621 145.901 177.047 161.849 174.597 170.071C172.148 178.294 172.845 185.954 173.017 189.605C173.274 192.678 173.735 195.728 174.397 198.734V200.563C174.397 200.563 170.899 205.675 170.726 207.497C170.554 209.318 172.997 214.07 173.176 214.985C173.355 215.899 174.052 216.079 175.977 217.145C177.902 218.21 180.173 217.332 181.401 217.332C182.629 217.332 182.781 216.238 184.375 215.323C185.969 214.409 187.7 211.673 187.7 209.477C187.7 207.281 185.948 203.45 184.899 201.809C184.31 200.907 183.846 199.923 183.519 198.886L185.272 195.055C185.272 195.055 189.467 207.468 201.894 211.126C214.321 214.783 234.786 210.406 239.844 208.75C244.901 207.094 247.192 204.185 247.192 204.185L250.87 200.894C251.115 201.485 251.211 202.131 251.15 202.771C251.088 203.411 250.871 204.024 250.518 204.552C249.29 206.374 247.717 207.655 247.717 209.844C247.797 211.939 248.091 214.02 248.593 216.05C248.945 217.692 250.663 217.879 251.042 216.418C251.422 214.956 252.616 218.578 255.238 219.341C257.86 220.104 259.792 217.692 261.717 214.589C263.642 211.486 264.339 210.211 263.462 207.468C262.586 204.725 260.668 203.09 261.013 200.534C261.358 197.978 266.788 183.737 267.313 170.402C267.837 157.068 261.365 132.962 260.144 129.319C258.922 125.676 253.664 119.095 248.414 119.095C243.163 119.095 238.064 120.924 235.642 120.924C234.06 120.913 232.481 120.79 230.915 120.557L206.075 123.113L203.764 122.976Z" fill="#181D3D" stroke="#263238" stroke-linecap="round" stroke-linejoin="round"/>
<path id="Vector_128" d="M185.271 195.12C185.271 195.12 188.418 185.803 190.695 175.947C192.972 166.09 192.965 158.782 192.965 152.187C192.965 145.591 195.242 136.483 195.242 136.483" stroke="#263238" stroke-linecap="round" stroke-linejoin="round"/>
<path id="Vector_129" d="M184.92 201.837C184.34 200.961 183.876 200.007 183.54 199.001C180.166 197.157 176.329 198.835 174.411 199.944V200.563C174.411 200.563 170.913 205.675 170.74 207.497C170.568 209.318 173.01 214.07 173.19 214.985C173.369 215.899 174.066 216.079 175.991 217.145C177.916 218.21 180.186 217.332 181.414 217.332C182.643 217.332 182.794 216.237 184.388 215.323C185.982 214.409 187.714 211.673 187.714 209.477C187.714 207.281 185.968 203.479 184.92 201.837Z" fill="white" stroke="#263238" stroke-linecap="round" stroke-linejoin="round"/>
<path id="Vector_130" d="M263.483 207.497C262.938 205.783 261.979 204.494 261.413 203.141C260.079 202.309 258.558 201.859 257.004 201.837C252.802 201.837 251.229 203.846 251.229 203.846L250.87 203.954C250.773 204.172 250.66 204.381 250.532 204.581C249.304 206.402 247.73 207.684 247.73 209.873C247.811 211.968 248.105 214.048 248.607 216.079C248.959 217.721 250.677 217.908 251.056 216.446C251.436 214.985 252.629 218.606 255.251 219.369C257.873 220.133 259.805 217.721 261.731 214.617C263.656 211.514 264.359 210.24 263.483 207.497Z" fill="white" stroke="#263238" stroke-linecap="round" stroke-linejoin="round"/>
<path id="Vector_131" d="M250.89 200.923C250.89 200.923 251.415 190.699 248.613 181.757C245.812 172.814 243.714 168.077 244.411 160.574C245.108 153.072 247.909 132.638 248.261 129.895" stroke="#263238" stroke-linecap="round" stroke-linejoin="round"/>
<path id="Vector_132" d="M186.493 191.247C186.493 191.247 191.744 202.047 203.467 206.59C215.19 211.133 228.997 209.326 235.49 206.77C241.983 204.214 248.6 198.555 249.49 196.906C249.968 196.03 250.377 195.115 250.711 194.17" stroke="#263238" stroke-linecap="round" stroke-linejoin="round"/>
<path id="Vector_133" d="M179.496 145.562C179.496 145.562 179.869 153.374 179.869 158.846" stroke="#263238" stroke-linecap="round" stroke-linejoin="round"/>
<path id="Vector_134" d="M246.633 142.51C246.633 142.51 243.266 154.03 241.769 157.745" stroke="#263238" stroke-linecap="round" stroke-linejoin="round"/>
<path id="Vector_135" d="M260.861 131.573C260.861 131.573 263.855 140.753 262.544 147.413C261.233 154.073 258.404 163.044 258.404 164.606" stroke="#263238" stroke-linecap="round" stroke-linejoin="round"/>
<path id="Vector_136" d="M211.34 139.572L219.737 156.189L229.018 137.383C229.018 137.383 226.037 132.271 220.966 131.357C215.894 130.442 209.76 135.007 211.34 139.572Z" fill="white" stroke="#263238" stroke-linecap="round" stroke-linejoin="round"/>
<path id="Vector_137" d="M219.04 138.665C217.62 138.745 216.24 139.182 215.017 139.939C212.913 141.221 208.89 144.324 208.89 144.324C208.89 144.324 208.014 135.922 208.2 131.724C208.386 127.526 217.473 119.671 223.249 117.482C229.024 115.294 233.047 117.483 234.096 120.953C235.144 124.423 234.972 133.006 233.219 137.203C232 140.016 230.536 142.706 228.845 145.238C228.845 145.238 223.421 140.854 222.372 139.939C221.324 139.025 219.04 138.665 219.04 138.665Z" fill="white" stroke="#263238" stroke-linecap="round" stroke-linejoin="round"/>
<path id="Vector_138" d="M210.091 87.1704C210.091 87.1704 205.309 94.3703 205.171 97.3295C205.033 100.289 204.537 105.163 203.522 106.805C202.508 108.446 200.473 111.902 200.983 115.121C201.494 118.339 203.474 125.237 204.178 126.54C204.882 127.843 210.892 129.931 210.892 129.931C210.892 129.931 217.157 136.08 218.04 137.405C218.923 138.73 222.87 137.772 227.59 131.278C232.309 124.783 231.778 118.404 231.778 118.404C231.778 118.404 234.869 119.455 236.152 116.791C237.436 114.127 238.802 107.431 237.208 106.553C235.614 105.674 231.267 108.713 230.881 109.174C230.494 109.634 229.722 107.28 227.7 104.4C225.678 101.52 223.049 100.541 221.78 96.5376C220.51 92.5344 219.02 89.2008 216.667 87.3576C214.314 85.5144 211.954 85.4496 210.091 87.1704Z" fill="white" stroke="#263238" stroke-linecap="round" stroke-linejoin="round"/>
<g id="Vector_139">
<path d="M236.525 104.753C236.525 104.753 235.187 104.882 233.393 107.431C230.377 111.715 229.48 110.311 229.411 107.431C229.37 105.948 226.562 105.645 224.85 103.565C221.537 99.321 218.494 94.8545 215.742 90.1942C213.465 86.0398 210.091 87.1702 210.091 87.1702C210.091 87.1702 204.068 83.3614 216.301 81.583" fill="#EBEBEB"/>
<path d="M236.525 104.753C236.525 104.753 235.187 104.882 233.393 107.431C230.377 111.715 229.48 110.311 229.411 107.431C229.37 105.948 226.562 105.645 224.85 103.565C221.537 99.321 218.494 94.8545 215.742 90.1942C213.465 86.0398 210.091 87.1702 210.091 87.1702C210.091 87.1702 204.068 83.3614 216.301 81.583" stroke="#B0B0B0" stroke-linecap="round" stroke-linejoin="round"/>
</g>
<path id="Vector_140" d="M210.595 100.224C210.595 100.224 211.471 103.104 211.071 103.824C210.67 104.544 207.145 112.515 207.145 112.515C207.145 112.515 207.559 115.02 209.808 114.394C212.057 113.767 212.623 114.883 213.617 114.999C214.61 115.114 215.183 114.473 214.666 113.011" stroke="#263238" stroke-linecap="round" stroke-linejoin="round"/>
<path id="Vector_141" d="M205.454 115.797C206.108 116.498 206.923 117.014 207.821 117.295C209.139 117.619 212.113 118.13 213.113 118.238C214.114 118.346 215.618 116.798 215.618 116.798" stroke="#263238" stroke-linecap="round" stroke-linejoin="round"/>
<path id="Vector_142" d="M206.779 119.282C206.779 119.282 209.608 121.183 212.562 120.283" stroke="#263238" stroke-linecap="round" stroke-linejoin="round"/>
<path id="Vector_143" d="M216.929 104.098L221.22 106.51" stroke="#263238" stroke-linecap="round" stroke-linejoin="round"/>
<path id="Vector_144" d="M209.628 103.097L206.558 103.457" stroke="#263238" stroke-linecap="round" stroke-linejoin="round"/>
<path id="Vector_145" d="M210.222 98.9498C209.618 98.5311 208.927 98.27 208.207 98.1886C207.486 98.1071 206.758 98.2077 206.082 98.4818" stroke="#B0B0B0" stroke-width="2" stroke-linecap="round" stroke-linejoin="round"/>
<path id="Vector_146" d="M215.473 100.246C215.473 100.246 218.35 98.46 221.351 101.959" stroke="#B0B0B0" stroke-width="2" stroke-linecap="round" stroke-linejoin="round"/>
<path id="Vector_147" d="M215.238 96.0049C215.238 96.0049 212.823 98.1649 213.548 99.3241" stroke="#263238" stroke-linecap="round" stroke-linejoin="round"/>
<path id="Vector_148" d="M216.66 106.697C216.66 106.697 216.294 108.59 219.365 109.814" stroke="#263238" stroke-linecap="round" stroke-linejoin="round"/>
<path id="Vector_149" d="M209.408 105.185C208.508 105.965 207.476 106.563 206.365 106.949" stroke="#263238" stroke-linecap="round" stroke-linejoin="round"/>
<path id="Vector_150" d="M208.124 104.213C208.097 104.466 207.975 104.697 207.785 104.857C207.595 105.018 207.353 105.094 207.11 105.069C206.878 105.028 206.67 104.897 206.528 104.701C206.386 104.506 206.32 104.261 206.345 104.017C206.37 103.773 206.482 103.548 206.66 103.388C206.838 103.227 207.068 103.144 207.303 103.154C207.546 103.183 207.768 103.31 207.921 103.508C208.075 103.706 208.148 103.959 208.124 104.213Z" fill="#263238"/>
<path id="Vector_151" d="M218.522 105.768C218.509 105.893 218.473 106.015 218.415 106.125C218.356 106.236 218.278 106.333 218.184 106.412C218.09 106.491 217.982 106.55 217.866 106.585C217.75 106.62 217.628 106.631 217.508 106.617C217.388 106.604 217.272 106.566 217.166 106.505C217.06 106.444 216.967 106.363 216.891 106.264C216.815 106.166 216.759 106.053 216.725 105.932C216.691 105.811 216.681 105.684 216.694 105.559C216.706 105.434 216.742 105.313 216.799 105.202C216.856 105.091 216.934 104.994 217.028 104.915C217.121 104.836 217.229 104.777 217.345 104.742C217.46 104.706 217.582 104.696 217.701 104.709C217.945 104.737 218.167 104.863 218.321 105.062C218.475 105.26 218.548 105.514 218.522 105.768Z" fill="#263238"/>
<path id="Vector_152" d="M231.771 118.404L229.349 117.468C228.829 118.631 228.186 119.73 227.431 120.744C226.745 121.661 226.116 122.623 225.547 123.624" stroke="#263238" stroke-linecap="round" stroke-linejoin="round"/>
<path id="Vector_153" d="M211.919 129.463C212.454 129.784 213.061 129.953 213.678 129.953C214.296 129.953 214.903 129.784 215.438 129.463C216.899 128.653 218.285 127.703 219.578 126.626" stroke="#263238" stroke-linecap="round" stroke-linejoin="round"/>
<path id="Vector_154" d="M252.967 226.599H179.303V231.66H252.967V226.599Z" fill="#8C8C8C" stroke="#263238" stroke-linecap="round" stroke-linejoin="round"/>
<path id="Vector_155" d="M179.151 333.526C178.852 333.526 178.557 333.464 178.281 333.345C178.005 333.225 177.754 333.05 177.543 332.829C177.332 332.608 177.165 332.347 177.052 332.058C176.938 331.77 176.88 331.461 176.881 331.15V209.995C176.88 209.683 176.938 209.375 177.052 209.086C177.165 208.798 177.332 208.536 177.543 208.315C177.754 208.095 178.005 207.92 178.281 207.8C178.557 207.681 178.852 207.619 179.151 207.619C179.45 207.619 179.746 207.681 180.022 207.8C180.299 207.919 180.55 208.094 180.761 208.315C180.972 208.536 181.14 208.798 181.255 209.086C181.369 209.374 181.428 209.683 181.428 209.995V331.15C181.428 331.462 181.369 331.771 181.255 332.059C181.14 332.347 180.972 332.609 180.761 332.83C180.55 333.05 180.299 333.225 180.022 333.345C179.746 333.464 179.45 333.526 179.151 333.526Z" fill="#8C8C8C" stroke="#263238" stroke-linecap="round" stroke-linejoin="round"/>
<path id="Vector_156" d="M254.334 333.526C254.035 333.526 253.739 333.464 253.463 333.345C253.187 333.225 252.937 333.05 252.726 332.829C252.515 332.608 252.348 332.347 252.234 332.058C252.121 331.77 252.063 331.461 252.063 331.15V209.995C252.063 209.683 252.121 209.375 252.234 209.086C252.348 208.798 252.515 208.536 252.726 208.315C252.937 208.095 253.187 207.92 253.463 207.8C253.739 207.681 254.035 207.619 254.334 207.619C254.633 207.619 254.929 207.681 255.205 207.8C255.481 207.919 255.732 208.094 255.944 208.315C256.155 208.536 256.323 208.798 256.437 209.086C256.552 209.374 256.611 209.683 256.611 209.995V331.15C256.611 331.462 256.552 331.771 256.437 332.059C256.323 332.347 256.155 332.609 255.944 332.83C255.732 333.05 255.481 333.225 255.205 333.345C254.929 333.464 254.633 333.526 254.334 333.526Z" fill="#8C8C8C" stroke="#263238" stroke-linecap="round" stroke-linejoin="round"/>
</g>
<g id="freepik--character-1--inject-63">
<path id="Vector_157" d="M125.925 337.68C146.312 337.68 162.84 333.812 162.84 329.04C162.84 324.268 146.312 320.4 125.925 320.4C105.537 320.4 89.0098 324.268 89.0098 329.04C89.0098 333.812 105.537 337.68 125.925 337.68Z" fill="#263238" stroke="#263238" stroke-width="2" stroke-linecap="round" stroke-linejoin="round"/>
<path id="Vector_158" d="M135.412 313.97C135.412 313.97 142.643 319.406 144.609 320.674C146.576 321.941 149.771 321.826 148.26 324.562C146.748 327.298 139.041 326.88 134.549 327.046C130.057 327.211 125.2 325.375 120.384 325.21C115.567 325.044 119.769 316.195 119.769 316.195C119.769 316.195 130.513 311.134 135.412 313.97Z" fill="white" stroke="#263238" stroke-linecap="round" stroke-linejoin="round"/>
<path id="Vector_159" d="M148.26 324.562C148.488 324.197 148.621 323.778 148.647 323.345C142.147 325.915 131.507 323.064 128.865 323.158L118.211 323.532C118.321 324.038 118.601 324.487 119.002 324.795C119.402 325.103 119.895 325.25 120.391 325.21C125.221 325.375 130.051 327.204 134.557 327.046C139.063 326.887 146.742 327.29 148.26 324.562Z" fill="white" stroke="#263238" stroke-linecap="round" stroke-linejoin="round"/>
<path id="Vector_160" d="M146.97 173.398C146.97 173.398 148.405 211.147 146.549 223.258C144.693 235.368 141.892 257.544 139.546 264.298C137.2 271.051 132.57 296.323 132.715 300.665C132.859 305.007 132.659 309.031 132.659 309.031C132.659 309.031 134.584 308.959 134.936 309.953C135.209 311.267 135.359 312.605 135.385 313.949C135.385 313.949 129.658 315.159 128.078 315.879C126.498 316.599 118.563 318.24 118.563 318.24C118.563 318.24 118.142 315.245 118.093 313.575C118.045 311.904 119.473 306.835 119.473 306.835C119.473 306.835 117.597 288.504 116.907 277.15C116.217 265.795 119.26 240.941 119.135 236.931C119.011 232.92 122.82 172.246 122.82 172.246L145.224 171.123L146.97 173.398Z" fill="#181D3D" stroke="#263238" stroke-linecap="round" stroke-linejoin="round"/>
<path id="Vector_161" d="M116.278 316.987C116.278 316.987 127.394 323.626 129.354 324.907C131.313 326.189 133.583 326.765 133.011 328.788C132.438 330.811 127.373 333.007 119.369 333.288C111.365 333.569 103.934 331.848 100.988 329.919C98.0416 327.989 101.05 321.891 101.05 321.891C101.05 321.891 109.433 313.553 116.278 316.987Z" fill="white" stroke="#263238" stroke-linecap="round" stroke-linejoin="round"/>
<path id="Vector_162" d="M133.011 328.774C133.11 328.45 133.124 328.104 133.053 327.773C130.7 328.767 125.621 330.394 118.273 330.041C112.014 329.674 105.799 328.735 99.6981 327.233C99.6761 327.756 99.7832 328.277 100.009 328.744C100.235 329.212 100.572 329.611 100.988 329.904C103.935 331.812 111.338 333.555 119.37 333.274C127.402 332.993 132.432 330.804 133.011 328.774Z" fill="white" stroke="#263238" stroke-linecap="round" stroke-linejoin="round"/>
<path id="Vector_163" d="M126.139 225.655C126.139 225.655 122.613 265.255 119.735 275.386C116.858 285.516 114.609 305.006 114.705 308.016C114.762 309.818 115.036 311.606 115.52 313.337C116.105 313.733 116.568 314.298 116.851 314.964C117.11 316.053 117.253 317.169 117.279 318.29C117.279 318.29 115.754 320.688 110.055 322.898C106.683 324.216 103.145 325.016 99.5529 325.274C99.5529 325.274 99.9531 307.865 98.2833 295.884C96.6135 283.903 97.3725 267.804 98.4903 262.764C99.6081 257.724 101.878 248.594 101.05 242.935C100.222 237.276 98.7663 231.646 98.7663 231.646L96.165 220.694L126.139 225.655Z" fill="#181D3D" stroke="#263238" stroke-linecap="round" stroke-linejoin="round"/>
<path id="Vector_164" d="M128.118 98.6904C128.118 98.6904 120.929 101.174 118.652 103.478C116.375 105.782 122.861 174.038 122.861 174.038C122.861 174.038 133.397 175.896 137.454 175.752C141.511 175.608 146.969 173.398 146.969 173.398C146.969 173.398 145.513 135.094 143.519 126.914C142.248 121.738 140.655 116.654 138.751 111.694L130.264 100.397L128.118 98.6904Z" fill="white" stroke="#263238" stroke-linecap="round" stroke-linejoin="round"/>
<path id="Vector_165" d="M136.951 110.03L139.635 117.504L134.984 115.07C134.984 115.07 136.544 110.678 136.951 110.03Z" stroke="#263238" stroke-linecap="round" stroke-linejoin="round"/>
<path id="Vector_166" d="M134.598 117.36L136.951 110.059L134.736 105.624C134.736 105.624 133.17 115.042 134.598 117.36Z" stroke="#263238" stroke-linecap="round" stroke-linejoin="round"/>
<path id="Vector_167" d="M158.7 79.3656C159.142 77.2056 158.01 68.2632 158.01 68.2632C158.01 68.2632 145.707 73.7856 137.489 76.0032C129.272 78.2208 122.613 81.9216 122.654 84.6432C122.654 84.6432 124.469 90.8856 124.869 92.8224C125.27 94.7592 123.082 98.7624 123.082 98.7624C123.082 98.7624 128.119 105.322 131.059 108.122L134.074 121.5L135.206 107.136C136.421 105.473 137.552 103.745 138.593 101.959C138.593 101.959 143.03 103.73 144.383 103.399C145.735 103.068 152.663 94.7088 152.663 94.7088C152.663 94.7088 157.43 93.8232 157.893 92.6136C158.355 91.404 156.734 82.7208 156.734 82.7208C157.706 81.842 158.394 80.6696 158.7 79.3656Z" fill="white" stroke="#263238" stroke-linecap="round" stroke-linejoin="round"/>
<path id="Vector_168" d="M138.559 101.966L134.557 99.4824L135.95 105.286L138.559 101.966Z" fill="#263238" stroke="#263238" stroke-linecap="round" stroke-linejoin="round"/>
<path id="Vector_169" d="M152.372 84.0097C152.11 84.9169 151.6 85.5577 151.234 85.4497C150.868 85.3417 150.785 84.5065 151.048 83.5993C151.31 82.6921 151.82 82.0513 152.186 82.1593C152.552 82.2673 152.635 83.1025 152.372 84.0097Z" fill="#263238"/>
<path id="Vector_170" d="M150.033 80.3807C150.033 80.3807 152.51 77.7959 154.615 80.2727" stroke="#263238" stroke-linecap="round" stroke-linejoin="round"/>
<path id="Vector_171" d="M149.088 95.5442C149.088 95.5442 146.37 95.2274 144.948 91.8506" stroke="#263238" stroke-linecap="round" stroke-linejoin="round"/>
<path id="Vector_172" d="M131.3 82.1808C131.3 82.1808 138.2 79.704 147.398 76.1688C156.595 72.6336 162.205 69.8976 161.405 66.0168C160.604 62.136 154.863 56.592 146.225 54.8424C137.586 53.0928 128.285 55.3608 124.4 58.8168C120.515 62.2728 118.266 66.8376 119.066 70.7184C119.867 74.5992 120.75 84.3552 122.82 86.6592C124.89 88.9632 131.3 82.1808 131.3 82.1808Z" fill="#263238" stroke="#263238" stroke-linecap="round" stroke-linejoin="round"/>
<g id="Vector_173">
<path d="M133.522 83.52C133.522 83.52 131.949 77.5944 129.244 78.2064C126.539 78.8184 125.235 85.4064 127.284 88.4304C129.334 91.4544 132.418 89.3088 132.418 89.3088" fill="white"/>
<path d="M133.522 83.52C133.522 83.52 131.949 77.5944 129.244 78.2064C126.539 78.8184 125.235 85.4064 127.284 88.4304C129.334 91.4544 132.418 89.3088 132.418 89.3088" stroke="#263238" stroke-linecap="round" stroke-linejoin="round"/>
</g>
<path id="Vector_174" d="M119.466 72.8355C119.466 72.8355 113.663 65.2755 109.861 64.8363C106.06 64.3971 101.83 70.5171 100.829 76.8315C99.8289 83.1459 105.659 85.5363 109.689 84.6291C113.719 83.7219 119.832 77.1843 119.818 76.2627C119.804 75.3411 119.466 72.8355 119.466 72.8355Z" fill="#263238" stroke="#263238" stroke-linecap="round" stroke-linejoin="round"/>
<path id="Vector_175" d="M132.825 109.339L127.719 118.663C127.719 118.663 123.372 107.438 122.426 104.94C121.747 102.847 121.271 100.688 121.005 98.4958L123.213 97.1494L132.825 109.339Z" fill="white" stroke="#263238" stroke-linecap="round" stroke-linejoin="round"/>
<path id="Vector_176" d="M157.81 179.921C157.81 179.921 155.015 181.21 153.318 181.267C151.62 181.325 152.628 176.947 153.263 173.772C153.897 170.597 156.63 177.595 157.81 179.921Z" fill="white" stroke="#263238" stroke-linecap="round" stroke-linejoin="round"/>
<path id="Vector_177" d="M155.512 173.095L154.629 186.775L149.109 179.079L148.515 178.308L147.825 168.07C147.825 168.07 154.263 169.589 155.512 173.095Z" fill="white" stroke="#263238" stroke-linecap="round" stroke-linejoin="round"/>
<path id="Vector_178" d="M146.887 158.011C146.887 158.011 152.496 161.755 154.953 167.594C156.504 171.526 157.467 175.684 157.809 179.921C157.809 179.921 154.967 173.909 152.455 172.217C150.922 171.206 149.235 170.476 147.466 170.057L146.887 158.011Z" fill="white" stroke="#263238" stroke-linecap="round" stroke-linejoin="round"/>
<path id="Vector_179" d="M121.005 98.4961C121.005 98.4961 124.89 112.464 128.154 119.52C131.417 126.576 133.094 148.442 134.364 152.748C134.364 152.748 133.708 191.909 134.088 203.609C134.467 215.309 135.136 245.722 135.136 245.722C135.136 245.722 125.911 248.055 109.779 244.944C93.6466 241.834 82.9033 236.88 82.9033 236.88C82.9033 236.88 94.0468 165.233 94.3366 164.218C94.6264 163.202 99.8014 144.958 100.374 132.898C100.947 120.838 100.767 115.488 105.701 109.289C110.634 103.09 121.005 98.4961 121.005 98.4961Z" fill="white" stroke="#263238" stroke-linecap="round" stroke-linejoin="round"/>
<path id="Vector_180" d="M107.253 231.494C106.294 231.271 105.328 231.005 104.362 230.709" stroke="#263238" stroke-linecap="round" stroke-linejoin="round"/>
<path id="Vector_181" d="M100.878 227.074L102.81 202.982C120.219 206.95 131.286 204.631 131.286 204.631L131.604 231.696C124.527 233.179 117.252 233.311 110.131 232.085" stroke="#263238" stroke-linecap="round" stroke-linejoin="round"/>
<path id="Vector_182" d="M131.252 207.598C131.252 207.598 120.212 209.923 102.775 205.949" stroke="#263238" stroke-linecap="round" stroke-linejoin="round"/>
<path id="Vector_183" d="M149.198 176.875C149.198 176.875 154.718 184.176 155.27 189.115C155.822 194.054 153.407 207.533 153.407 207.533L149.198 176.875Z" fill="white" stroke="#263238" stroke-linecap="round" stroke-linejoin="round"/>
<path id="Vector_184" d="M134.708 110.059C134.708 110.059 142.457 125.727 143.795 137.383C145.134 149.04 145.721 186.826 145.445 198.209C145.169 209.592 144.679 243.735 144.679 243.735C144.679 243.735 155.45 239.674 155.981 236.304C156.512 232.935 153.359 204.955 152.151 197.302C150.944 189.648 148.26 166.342 148.122 162.022C147.984 157.702 150.406 143.547 147.935 136.606C146.37 132.074 145.147 127.42 144.278 122.688C144.278 122.688 144.858 118.246 141.518 113.328C138.179 108.411 133.956 106.74 134.708 110.059Z" fill="white" stroke="#263238" stroke-linecap="round" stroke-linejoin="round"/>
<path id="Vector_185" d="M141.581 119.52C141.581 119.52 143.651 130.075 144.389 135.288" stroke="#263238" stroke-width="2" stroke-linecap="round" stroke-linejoin="round"/>
<path id="Vector_186" d="M147.501 156.11C147.501 156.11 145.479 155.729 144.886 155.153C144.293 154.577 141.753 146.88 141.608 142.56C141.464 138.24 142.919 134.129 144.368 134.078C145.817 134.028 147.128 139.219 146.735 145.073C146.535 148.118 142.285 153.763 139.601 155.052C136.916 156.341 136.447 155.167 136.447 155.167" stroke="#263238" stroke-width="2" stroke-linecap="round" stroke-linejoin="round"/>
<path id="Vector_187" d="M136.702 154.843C136.709 155.079 136.649 155.312 136.529 155.512C136.409 155.712 136.235 155.871 136.029 155.968C135.823 156.065 135.593 156.096 135.37 156.058C135.147 156.019 134.94 155.912 134.775 155.751C134.61 155.59 134.494 155.381 134.442 155.151C134.391 154.922 134.405 154.681 134.485 154.46C134.564 154.239 134.704 154.047 134.888 153.909C135.071 153.771 135.29 153.693 135.516 153.684C135.82 153.674 136.116 153.791 136.338 154.008C136.561 154.225 136.692 154.526 136.702 154.843Z" fill="#263238"/>
<path id="Vector_188" d="M149.654 156.031C149.664 156.27 149.605 156.505 149.486 156.709C149.367 156.912 149.192 157.074 148.985 157.173C148.777 157.273 148.546 157.306 148.321 157.269C148.095 157.231 147.885 157.124 147.718 156.962C147.551 156.799 147.434 156.589 147.381 156.357C147.329 156.125 147.344 155.882 147.424 155.659C147.504 155.435 147.646 155.242 147.832 155.104C148.018 154.965 148.239 154.887 148.467 154.879C148.771 154.87 149.066 154.985 149.288 155.201C149.51 155.417 149.642 155.715 149.654 156.031Z" fill="#263238"/>
<path id="Vector_189" d="M139.593 121.478C139.593 121.478 139.738 120.967 141.187 121.255C142.636 121.543 146.114 124.762 146.114 124.762C146.114 124.762 145.527 116.582 142.85 113.162C140.173 109.742 135.426 106.56 135.426 106.56C135.072 106.817 134.831 107.21 134.754 107.653C134.678 108.096 134.773 108.552 135.018 108.922C135.867 110.405 139.593 121.478 139.593 121.478Z" fill="white" stroke="#263238" stroke-linecap="round" stroke-linejoin="round"/>
<path id="Vector_190" d="M119.942 111.42C119.942 111.42 123.855 134.64 124.234 146.448" stroke="#263238" stroke-width="2" stroke-linecap="round" stroke-linejoin="round"/>
<path id="Vector_191" d="M127.801 145.728C127.779 144.987 127.546 144.269 127.132 143.667C126.719 143.064 126.143 142.602 125.478 142.342C124.812 142.081 124.088 142.032 123.396 142.201C122.704 142.37 122.076 142.75 121.591 143.292C121.107 143.834 120.787 144.515 120.673 145.247C120.559 145.979 120.657 146.729 120.952 147.404C121.248 148.078 121.729 148.645 122.334 149.034C122.939 149.423 123.641 149.616 124.351 149.587C125.298 149.55 126.192 149.123 126.839 148.4C127.485 147.677 127.831 146.716 127.801 145.728Z" fill="white" stroke="#263238" stroke-linecap="round" stroke-linejoin="round"/>
<path id="Vector_192" d="M121.005 98.4961C121.005 98.4961 118.334 98.4961 117.251 99.8497C116.757 100.453 116.297 101.085 115.871 101.743C115.871 101.743 116.561 118.303 116.713 122.623C116.865 126.943 116.934 129.478 116.934 129.478C116.934 129.478 123.033 124.913 125.083 123.833C126.427 123.144 127.81 122.538 129.223 122.018L122.681 103.183L121.005 98.4961Z" fill="white" stroke="#263238" stroke-linecap="round" stroke-linejoin="round"/>
<path id="Vector_193" d="M96.4204 199.85L143.368 195.43L140.636 163.555L93.9502 170.338L96.4204 199.85Z" fill="#CA5050" stroke="#263238" stroke-linecap="round" stroke-linejoin="round"/>
<path id="Vector_194" d="M117.603 184.507C117.603 184.507 120.591 186.516 121.488 186.487C122.709 186.63 123.918 186.87 125.103 187.207C125.669 187.301 127.898 190.159 128.491 191.074C129.084 191.988 131.755 194.717 131.769 195.185C131.782 195.653 130.899 196.035 130.223 196.056C129.583 195.971 128.966 195.753 128.408 195.415C128.803 196.437 129.137 197.483 129.409 198.547C129.345 198.903 129.172 199.227 128.915 199.47C128.659 199.713 128.333 199.862 127.987 199.894C126.984 199.759 125.997 199.518 125.041 199.174C125.041 199.174 124.62 200.009 122.847 200.772C121.074 201.535 120.97 201.78 119.507 201.715C118.703 201.697 117.913 201.489 117.196 201.108C116.479 200.726 115.854 200.181 115.367 199.512C114.305 198.029 111.227 193.327 110.993 192.982C110.818 192.737 110.624 192.508 110.413 192.298L117.016 184.558L117.603 184.507Z" fill="white" stroke="#263238" stroke-linecap="round" stroke-linejoin="round"/>
<g id="Vector_195">
<path d="M110.4 104.89C110.4 104.89 99.6426 109.282 97.0344 114.502C94.4262 119.722 78.9219 162.425 79.8741 165.29C80.8263 168.156 91.7421 178.481 94.8609 182.383C97.9797 186.286 108.33 195.84 108.33 195.84L118.68 184.774L100.678 162.086L108.958 133.027" fill="white"/>
<path d="M110.4 104.89C110.4 104.89 99.6426 109.282 97.0344 114.502C94.4262 119.722 78.9219 162.425 79.8741 165.29C80.8263 168.156 91.7421 178.481 94.8609 182.383C97.9797 186.286 108.33 195.84 108.33 195.84L118.68 184.774L100.678 162.086L108.958 133.027" stroke="#263238" stroke-linecap="round" stroke-linejoin="round"/>
</g>
</g>
</g>
<defs>
<filter id="filter0_d_224_563" x="15.0723" y="185.264" width="85.1621" height="136" filterUnits="userSpaceOnUse" color-interpolation-filters="sRGB">
<feFlood flood-opacity="0" result="BackgroundImageFix"/>
<feColorMatrix in="SourceAlpha" type="matrix" values="0 0 0 0 0 0 0 0 0 0 0 0 0 0 0 0 0 0 127 0" result="hardAlpha"/>
<feOffset dy="4"/>
<feGaussianBlur stdDeviation="2"/>
<feComposite in2="hardAlpha" operator="out"/>
<feColorMatrix type="matrix" values="0 0 0 0 0 0 0 0 0 0 0 0 0 0 0 0 0 0 0.25 0"/>
<feBlend mode="normal" in2="BackgroundImageFix" result="effect1_dropShadow_224_563"/>
<feBlend mode="normal" in="SourceGraphic" in2="effect1_dropShadow_224_563" result="shape"/>
</filter>
</defs>
</svg>
